<svg xmlns="http://www.w3.org/2000/svg"><symbol id="icon-quote"><path d="M46.216 25.454c-7.03 0-12.727-5.698-12.727-12.727S39.187 0 46.216 0s12.727 5.698 12.727 12.727L59 14.546C59 28.604 47.604 40 33.545 40v-7.273c4.857 0 9.423-1.891 12.857-5.325a18.432 18.432 0 0 0 1.809-2.104 12.82 12.82 0 0 1-1.995.157zm-32.727 0C6.459 25.454.76 19.756.76 12.727S6.46 0 13.49 0s12.727 5.698 12.727 12.727l.057 1.819C26.273 28.604 14.877 40 .818 40v-7.273c4.857 0 9.423-1.891 12.857-5.325a18.432 18.432 0 0 0 1.808-2.104 12.82 12.82 0 0 1-1.994.157z" fill="#AE485C"/></symbol></svg>